<?xml version="1.0" encoding="UTF-8" standalone="no"?>
<svg
   xmlns:dc="http://purl.org/dc/elements/1.1/"
   xmlns:cc="http://creativecommons.org/ns#"
   xmlns:rdf="http://www.w3.org/1999/02/22-rdf-syntax-ns#"
   xmlns:svg="http://www.w3.org/2000/svg"
   xmlns="http://www.w3.org/2000/svg"
   xmlns:sodipodi="http://sodipodi.sourceforge.net/DTD/sodipodi-0.dtd"
   xmlns:inkscape="http://www.inkscape.org/namespaces/inkscape"
   width="512.0px"
   height="512.0px"
   viewBox="0 0 512.0 512.0"
   version="1.1"
   id="SVGRoot"
   sodipodi:docname="logo-only.svg"
   inkscape:version="1.0.1 (3bc2e813f5, 2020-09-07)">
  <defs
     id="defs37" />
  <sodipodi:namedview
     id="base"
     pagecolor="#ffffff"
     bordercolor="#666666"
     borderopacity="1.0"
     inkscape:pageopacity="0.0"
     inkscape:pageshadow="2"
     inkscape:zoom="0.68393757"
     inkscape:cx="1.6158404"
     inkscape:cy="148.55089"
     inkscape:document-units="px"
     inkscape:current-layer="layer1"
     inkscape:document-rotation="0"
     showgrid="true"
     inkscape:window-width="1410"
     inkscape:window-height="991"
     inkscape:window-x="26"
     inkscape:window-y="23"
     inkscape:window-maximized="0">
    <inkscape:grid
       type="xygrid"
       id="grid46" />
  </sodipodi:namedview>
  <metadata
     id="metadata40">
    <rdf:RDF>
      <cc:Work
         rdf:about="">
        <dc:format>image/svg+xml</dc:format>
        <dc:type
           rdf:resource="http://purl.org/dc/dcmitype/StillImage" />
        <dc:title />
      </cc:Work>
    </rdf:RDF>
  </metadata>
  <g
     inkscape:label="图层 1"
     inkscape:groupmode="layer"
     id="layer1">
    <g
       id="g90"
       transform="matrix(0.61914062,0,0,0.61914062,-0.60360028,70.903082)">
      <path
         id="shape0"
         fill="#000000"
         d="m 478.1375,44.994959 c -9.78963,2.13597 -22.02728,11.21385 -25.08653,18.956712 -0.61189,1.869003 -16.51998,5.339925 -37.62885,8.276914 -52.00742,6.941896 -60.5733,13.616773 -67.60959,51.797245 -2.14151,13.08285 -4.89485,41.11742 -6.11852,62.47715 -2.14148,46.99134 -2.14148,47.52534 26.92143,49.92831 25.08592,1.86894 30.28665,4.27193 23.55631,10.41282 -6.42443,5.33993 -61.49109,6.9419 -67.30365,1.86901 -2.4474,-2.13598 -2.75333,-16.82078 -0.30592,-58.73922 4.58888,-86.50676 2.14147,-92.647674 -38.85258,-92.914693 -21.41482,0 -25.39183,0.801017 -31.51037,6.140943 -6.11848,5.33992 -7.03625,9.34487 -8.56589,39.51542 -1.83555,32.30655 -2.44739,34.17554 -10.09554,39.78243 -4.28296,3.47099 -9.4837,6.67494 -11.62521,7.20893 -6.73034,1.86896 0.30592,7.4759 9.78965,7.4759 9.78963,0 21.10887,-8.27691 21.10887,-15.48578 0,-9.07788 8.87185,-16.5538 19.57922,-16.5538 11.62522,0 20.19113,-6.67488 20.19113,-15.75275 0,-3.47098 -0.91778,-5.60695 -2.14151,-5.07296 -1.52961,0.534 -6.4244,2.66997 -11.0133,4.80594 -12.23703,5.33992 -18.66147,1.06798 -19.88517,-13.08279 -0.91777,-9.3449 0.61181,-12.28183 8.25996,-18.95676 11.01337,-9.87883 21.41484,-10.14584 33.03998,-1.60198 7.9541,6.14094 8.56595,8.00989 9.48372,30.17061 1.52964,35.51049 -4.28295,102.25954 -9.17776,106.26451 -2.14148,1.60197 -10.09555,4.53891 -17.43778,6.40791 -22.94442,5.87391 -34.87552,21.89369 -39.15851,53.66622 -1.5296,10.94684 -0.91775,13.34982 2.75333,13.34982 3.36522,0 5.50669,-4.00495 7.03632,-12.81584 2.75333,-16.82072 12.54296,-31.50555 24.47407,-36.31148 13.46073,-5.60689 40.99404,-8.00988 51.3955,-4.53891 8.25997,2.66997 8.25997,3.20396 8.25997,26.43263 0,14.15077 1.83559,28.30158 4.28299,34.70952 2.44742,6.14087 3.67108,11.74784 2.14147,12.28182 -1.22372,0.80097 -14.99035,3.20396 -30.89848,5.60689 -35.48738,5.33993 -71.28069,13.08286 -93.30735,20.29172 -16.21408,5.33992 -32.73404,18.15576 -36.40503,28.30163 -1.2237,3.73796 -18.35557,89.17673 -27.53332,136.7021 -1.52965,8.54388 3.05927,18.9567 7.95407,18.9567 2.14149,0 7.34222,-6.67488 11.31923,-14.95179 8.56594,-17.08777 20.4969,-26.16563 40.07618,-30.17058 43.44144,-8.81087 248.71821,-42.7194 251.1656,-41.65141 3.97704,2.13597 3.36519,13.08284 -0.91777,21.09273 -4.5895,9.07784 -14.99098,14.95177 -30.89911,17.08773 -8.26002,1.33499 -12.84887,3.47095 -12.84887,5.87392 0,3.20396 4.28296,4.00495 20.80294,3.47096 31.20503,-0.534 38.85318,-6.94191 43.44203,-36.31151 2.14151,-13.61677 7.64813,-18.68973 26.30964,-23.22866 17.43777,-4.53894 21.10888,-1.86897 21.10888,15.4858 0,20.55868 5.50666,27.2336 22.02664,27.2336 31.81628,0 51.39553,-12.81579 51.39553,-33.64151 0,-14.15082 -4.89482,-15.21881 -10.70741,-2.66995 -5.20073,10.94682 -18.04961,20.29171 -27.53331,20.29171 -15.90814,0 -22.94442,-21.09274 -9.78962,-30.97159 3.6711,-2.93696 18.66143,-9.87887 33.03996,-15.48579 32.12221,-12.28183 45.88887,-21.62667 55.06665,-38.18044 7.03628,-12.54885 7.34221,-14.68482 7.34221,-92.91472 0,-75.55992 -0.30593,-81.16688 -6.73037,-99.05559 -12.23703,-33.90853 -32.12223,-45.65636 -90.24811,-52.06428 -32.73402,-4.00497 -33.6518,-4.27194 -32.4281,-9.61186 0.91778,-4.27194 6.11852,-4.80594 59.04366,-4.80594 32.12221,0 60.57329,-1.06798 63.32663,-2.13597 8.56588,-3.73794 17.13183,-23.2287 19.2733,-43.253421 3.05927,-26.966594 4.58888,-26.432595 -63.63257,-24.563657 -38.85252,1.067986 -59.96139,0.534 -69.44509,-1.601971 -12.54296,-2.936936 -13.76667,-4.004921 -15.29629,-12.548801 -1.2237,-6.941897 -3.36518,-9.611866 -9.1778,-10.946844 -10.09556,-2.402963 -20.497,-2.402963 -33.65179,0.266993 z m 29.06294,22.160668 c 2.4474,5.072958 6.11851,10.412882 8.87183,12.281821 7.64815,5.606956 58.73775,8.810911 98.50807,6.140942 19.88518,-1.335003 37.62888,-1.335003 39.15846,-0.267018 4.89482,3.737941 -1.22366,26.699648 -8.8718,33.374528 -7.34221,6.40791 -7.64815,6.40791 -80.76438,6.40791 -62.40889,0 -74.03403,0.534 -78.01106,4.27194 -5.50666,4.53897 -6.42444,13.34982 -1.83555,15.75281 1.83555,1.06798 3.05925,-1.33501 3.05925,-5.33993 0,-3.73794 2.14147,-7.47589 4.58888,-8.27691 6.42444,-2.40294 13.76667,3.73796 13.76667,11.21385 0,13.61684 -31.51035,20.29171 -40.99404,8.54387 -2.75398,-3.20394 -4.89547,-8.54387 -4.89547,-11.48081 0,-9.34489 -5.20073,-12.81582 -20.80292,-14.15082 -40.07629,-3.20396 -49.55995,5.33992 -49.55995,44.3214 0,21.35971 0.91777,26.16563 6.73033,33.10754 4.89484,6.14088 5.81263,9.34483 3.36521,12.54879 -4.28295,5.87393 -26.92146,7.20893 -36.40519,1.60199 -7.03629,-4.00492 -7.34221,-5.33993 -7.34221,-32.03956 0,-34.44252 4.89481,-67.01605 11.62521,-77.16189 11.31922,-16.820797 13.76662,-17.621751 101.56794,-27.767615 14.37851,-1.601971 16.82592,-2.669956 17.74369,-8.00988 0.61185,-3.203956 -0.30596,-5.873925 -2.14148,-5.873925 -1.83556,0 -3.36518,1.868951 -3.36518,4.27194 0,5.873924 -10.40149,3.470923 -11.62518,-2.669956 -1.52963,-6.674942 4.28292,-9.611865 20.1911,-9.611865 11.93106,0 13.46073,0.800954 17.43777,8.810848 z m -60.26802,75.559943 c 4.283,2.40299 6.7304,6.9419 6.7304,11.21383 0,6.40792 -1.83558,7.74293 -13.46073,10.67986 -7.34221,1.60198 -17.74369,6.14093 -22.94443,9.87886 -12.84887,9.61187 -16.51999,6.67493 -14.99035,-11.48084 1.2237,-11.21385 3.05925,-16.01977 8.56591,-19.75773 8.25996,-5.8739 26.92147,-6.4079 36.0992,-0.53398 z m 116.55834,33.37453 c 11.01333,1.60198 28.45109,6.4079 38.85257,10.41288 15.9081,6.14089 19.57925,9.07788 25.39182,19.75773 8.56593,15.21876 14.0726,42.45241 11.31926,55.26822 l -1.83556,9.61187 -14.99035,-1.33502 c -9.1778,-0.53398 -15.60222,0 -16.82595,1.86901 -3.97699,5.33992 -7.03626,2.93694 -8.87181,-6.67493 -3.36519,-17.35472 -13.46073,-31.77253 -27.53332,-38.44744 -10.7074,-5.33992 -16.8259,-6.40791 -36.09922,-6.40791 -34.87554,0.53399 -47.41848,8.00988 -55.98442,33.6415 -3.36517,9.3449 -5.81261,11.74783 -13.46133,13.34982 -12.23703,2.93698 -17.43777,9.87888 -22.02666,30.1706 -3.05925,12.81579 -6.1185,17.88872 -15.29628,25.63161 -12.23706,10.14587 -32.73406,16.8208 -47.72443,15.21882 -25.39184,-2.40299 -28.45107,-64.07914 -3.36517,-68.35108 3.97703,-0.80095 5.20074,2.13598 5.81257,13.08286 1.22373,16.55376 6.7304,21.35967 18.96742,16.28676 7.64814,-2.93696 7.95406,-4.00494 7.95406,-26.96661 0,-26.43266 4.58889,-61.40917 9.78963,-73.15701 1.83551,-4.5389 8.26,-9.61187 14.99036,-12.81582 25.39184,-11.21384 89.94276,-16.28675 130.93681,-10.14586 z m -1.2237,65.94807 c 4.89482,2.66998 11.62518,8.81091 14.99035,13.61685 11.93111,17.88872 9.17777,79.03086 -4.28296,98.52162 -3.36517,4.53891 -9.78961,10.14583 -14.37851,12.2818 -15.90813,6.9419 -78.01104,18.68974 -164.58866,30.97156 -65.16214,9.07788 -171.31837,29.90358 -185.08504,36.0445 -13.76663,6.14092 -15.90812,5.33992 -13.76663,-6.14092 3.67107,-18.15574 7.95406,-26.9666 15.9081,-32.57353 13.1548,-8.81087 52.61925,-18.15575 121.1466,-28.03462 80.76439,-11.74783 90.55402,-14.68476 104.62657,-28.8356 l 10.70743,-10.94684 7.34219,6.14092 c 10.09619,8.27691 32.42876,11.74783 52.92578,8.27691 34.87553,-5.60695 45.277,-17.08778 43.13553,-47.52536 -1.52964,-18.95671 -7.0363,-25.36463 -20.80295,-24.02968 -7.03629,0.80103 -7.64815,1.60199 -6.73037,13.08286 1.22371,13.8838 -4.28295,20.02472 -15.29628,17.62174 -10.70741,-2.40296 -17.7437,-15.21881 -17.7437,-31.77258 0,-18.15575 5.50667,-24.83062 23.86218,-30.17055 16.52001,-4.53893 34.56964,-3.20396 48.03037,3.47092 z M 478.1375,291.9665 c 4.58887,12.28181 19.2733,22.69467 31.81626,22.69467 9.48367,0 21.10888,-6.67492 24.16814,-13.88379 0.91778,-2.66996 2.4474,-2.66996 4.89481,-0.53399 6.42445,5.07291 -3.36519,20.82569 -15.90814,25.89861 -13.76669,5.87393 -22.02665,5.60696 -37.62885,-0.53399 -15.60222,-6.14092 -25.69842,-17.08776 -25.69842,-28.03461 0,-16.28675 12.84953,-20.29172 18.3562,-5.6069 z m 156.63396,-2.13596 c 3.36517,2.66996 5.50665,8.00989 5.50665,14.1508 v 9.87884 l -20.49703,-0.534 -20.80294,-0.26699 -0.9178,-9.61185 c -0.61182,-7.47592 0.61187,-10.67987 6.11854,-13.88383 8.87182,-5.60689 23.55627,-5.33992 30.59258,0.26703 z m -0.61187,45.12237 c 6.11852,5.0729 5.20074,25.89861 -1.52962,44.05435 -13.46073,34.97652 -55.67848,51.26328 -186.61529,71.82201 -135.21916,21.35972 -227.30283,39.24844 -247.49392,48.32631 -6.42442,2.93697 -12.54283,4.53893 -13.46058,3.73794 -2.75333,-2.40295 -1.52963,-20.82569 2.4474,-33.10753 1.83543,-6.14088 6.42433,-12.81582 10.09543,-14.68478 12.54296,-7.20891 73.7281,-20.02472 179.57839,-37.64646 136.44348,-22.6947 169.17752,-29.10262 189.06269,-37.6465 17.43777,-7.47589 29.67479,-20.29168 33.03998,-35.24347 3.67107,-15.48579 22.02664,-20.55876 34.87552,-9.61187 z"
         style="stroke-width:0.285799" />
      <path
         id="shape1"
         fill="#000000"
         d="m 466.18815,90.924767 c -11.38681,7.052823 -5.99309,24.554273 8.09062,24.554273 11.98611,0 17.08036,-16.456588 7.49132,-24.554273 -5.69341,-5.224311 -7.19167,-5.224311 -15.58194,0 z m 13.78399,10.709873 c -0.59927,2.61215 -2.9965,4.70187 -5.39372,4.70187 -2.39721,0 -4.79444,-2.08972 -5.39375,-4.70187 -0.5993,-3.134625 0.89894,-4.4407 5.39375,-4.4407 4.4948,0 5.99303,1.306075 5.39372,4.4407 z"
         style="stroke-width:0.279775" />
      <path
         id="shape2"
         fill="#000000"
         d="m 625.00395,97.19394 c -3.59586,5.22431 -6.59236,5.48556 -56.63436,5.22431 -30.56462,-0.26121 -55.7353,-1.56729 -59.93041,-3.395798 -5.0941,-1.828512 -8.09065,-1.828512 -10.18822,0 -6.89199,6.007958 9.58889,8.358928 66.82241,9.142548 61.72847,0.78367 68.32083,-0.26122 68.32083,-11.232272 0,-6.530386 -3.59584,-6.269174 -8.39025,0.261212 z"
         style="stroke-width:0.279775" />
      <path
         id="shape3"
         fill="#000000"
         d="m 396.66877,101.37344 c -19.17784,4.44067 -24.87123,9.66498 -29.66568,28.21128 -5.09413,18.80749 -7.49135,56.1613 -4.19518,66.60992 3.29619,10.70984 11.08716,15.93416 16.18126,11.49348 2.99655,-2.61215 2.39722,-4.44066 -1.79789,-8.62011 -4.79444,-4.70187 -5.09409,-8.3589 -3.29621,-33.17433 3.29621,-49.10852 6.29271,-53.02676 40.75286,-54.85526 23.37289,-1.5673 29.96525,-2.87337 29.96525,-7.05282 0,-7.836472 -21.27535,-8.881335 -47.94441,-2.61216 z"
         style="stroke-width:0.279775" />
      <path
         id="shape4"
         fill="#000000"
         d="m 485.96538,186.26845 c -2.99653,1.3061 -15.58198,3.65701 -28.16739,4.96313 -28.1675,2.61215 -33.56126,6.53036 -36.85744,26.64398 -1.19861,8.09763 -4.49476,17.50142 -7.19167,21.15843 -2.99652,4.17945 -3.89549,7.31405 -2.09754,8.35891 3.89546,2.08972 13.784,-2.87338 16.18122,-7.83647 0.89896,-2.08973 3.89549,-3.91824 6.89202,-3.91824 9.58903,0 27.5682,-5.22431 32.36265,-9.40376 2.39722,-2.35096 4.49478,-8.62011 4.49478,-14.36686 0,-7.57522 1.4983,-10.70981 5.39375,-12.01591 6.29275,-1.82849 18.57851,-11.23225 18.57851,-14.36683 0,-2.8734 -3.29622,-2.61215 -9.58889,0.78362 z m -24.87117,23.24821 c 0,11.75467 -23.67275,16.71777 -27.8679,5.74675 -1.79789,-5.22431 11.0873,-13.84446 19.77723,-13.06079 6.29271,0.52244 8.09067,2.08973 8.09067,7.31404 z"
         style="stroke-width:0.279775" />
      <path
         id="shape5"
         fill="#000000"
         d="m 442.81521,210.5615 c -2.39723,5.74674 0.89895,8.62008 5.39374,4.70188 2.69685,-2.35097 2.69685,-3.91826 0,-6.26917 -2.69687,-2.35098 -3.89546,-1.82854 -5.39374,1.56729 z"
         style="stroke-width:0.279775" />
      <path
         id="shape6"
         fill="#000000"
         d="m 505.44263,188.35825 c -6.89198,2.61216 -11.38678,11.49349 -8.39025,15.93415 2.9965,4.44067 9.58889,2.87337 11.3868,-2.61215 1.19859,-4.44066 4.19511,-5.22431 16.18122,-5.22431 34.46003,0 66.52291,16.19536 72.81562,36.83129 3.29618,10.70986 7.49132,14.88931 9.8885,9.40378 2.69692,-6.26917 -6.29267,-28.21123 -14.38329,-35.78645 -4.79445,-4.44066 -15.58198,-10.18741 -23.97225,-12.79956 -17.97913,-6.00796 -54.23712,-9.14255 -63.52635,-5.74675 z"
         style="stroke-width:0.279775" />
      <path
         id="shape7"
         fill="#000000"
         d="m 432.3275,253.40085 c -6.59238,4.9631 -10.78749,12.01592 -14.68298,25.07669 -6.59238,20.63603 -11.68648,26.38278 -24.2719,28.73369 -12.28589,2.08973 -19.47755,-1.82848 -21.87477,-11.75467 -0.89893,-4.70188 -3.29615,-7.57526 -5.39375,-7.05282 -6.29268,1.82851 -5.99302,13.322 0.5993,22.72576 6.29275,8.62008 6.5924,8.62008 21.87465,7.05278 20.07686,-2.35091 29.66575,-8.3589 34.75984,-22.72572 9.58889,-27.42764 14.08371,-35.00289 22.17431,-38.39869 4.49482,-1.82851 8.09066,-5.22431 8.09066,-7.31403 0,-6.00796 -11.08716,-4.17945 -21.27536,3.65701 z"
         style="stroke-width:0.279775" />
      <path
         id="shape8"
         fill="#000000"
         d="m 512.33464,246.08686 c -18.27882,4.96313 -25.47049,18.80753 -15.28229,30.30102 4.49479,5.22433 5.09409,4.44069 5.69341,-8.09766 0.59932,-16.19537 31.76318,-18.80752 44.3486,-3.65703 4.79444,5.22432 5.99308,11.23225 5.99308,27.68883 0,41.53323 -15.58197,53.81033 -68.32085,54.07158 -20.07674,0.26121 -25.77014,-0.52244 -30.86424,-4.70189 -6.29271,-4.96312 -6.29271,-4.96312 -6.29271,1.82849 0,12.27713 10.78754,15.67293 43.15003,14.36686 31.16385,-1.5673 57.5333,-9.66499 65.92358,-20.89722 9.88854,-13.32195 11.3868,-62.43045 2.09757,-77.31976 -7.79097,-12.79954 -27.86771,-18.80753 -46.44618,-13.58322 z"
         style="stroke-width:0.279775" />
      <path
         id="shape9"
         fill="#000000"
         d="m 429.93014,347.1773 c -9.5889,10.97105 -19.47743,13.84442 -105.17808,28.2113 -38.65524,6.53036 -78.20941,13.84433 -87.79829,16.19526 -18.87809,4.44066 -32.06285,12.01595 -32.06285,18.02387 0,4.17945 7.79097,4.96313 10.48788,1.04486 3.29615,-4.44063 49.44267,-15.15049 97.38714,-22.20331 88.99687,-13.58314 114.46732,-20.37474 122.55794,-33.43552 2.09758,-3.3958 3.29618,-8.62009 2.69688,-11.23225 -0.89896,-4.17945 -2.09758,-3.65701 -8.09062,3.39579 z"
         style="stroke-width:0.279775" />
      <path
         id="shape10"
         fill="#000000"
         d="m 598.03442,355.79736 c -17.97915,27.42763 -22.47395,29.51733 -100.98294,48.06366 -35.65781,8.3589 -58.43142,12.27714 -161.81162,27.95007 -52.13958,7.83646 -121.35936,22.98697 -132.4465,28.7337 -20.3764,10.97106 -12.58542,19.32996 10.48784,10.70985 29.96528,-11.23227 53.63784,-15.93416 180.39095,-35.78654 118.66159,-18.80752 167.50499,-30.03979 192.07651,-44.9291 15.8816,-9.14252 33.86076,-45.19026 23.07329,-45.19026 -2.0976,0 -6.89204,4.70187 -10.78753,10.44862 z"
         style="stroke-width:0.279775" />
    </g>
  </g>
</svg>
